<?xml version="1.0" encoding="UTF-8"?>
<svg fill="none" viewBox="0 0 341 144" xmlns="http://www.w3.org/2000/svg">
<path d="m195.32 78.191c0 11.572 9.361 20.952 20.909 20.952 11.551 0 20.912-9.3802 20.912-20.952s-9.361-20.952-20.912-20.952c-11.548 0-20.909 9.3802-20.909 20.952zm0.718-32.224c5.895-3.5835 12.809-5.6457 20.191-5.6457 21.536 0 39.061 16.286 39.061 37.87s-17.525 37.87-39.061 37.87-39.061-16.287-39.061-37.87v-55.191h18.87v22.967zm-156.97 53.176c-11.548 0-20.912-9.3802-20.912-20.952s9.3638-20.952 20.912-20.952 20.909 9.3802 20.909 20.952-9.361 20.952-20.909 20.952zm-3.7296-58.659c-19.725 1.7025-35.378 17.961-35.331 37.798 0.049326 21.537 17.552 37.779 39.061 37.779 7.3825 0 14.296-2.063 20.191-5.646l6.8838 3.954h11.986v-36.178c0-22.816-19.585-39.715-42.79-37.708zm136.47 62.952c0 6.974-5.643 12.626-12.601 12.626-6.957 0-12.597-5.652-12.597-12.626 0-6.9751 5.64-12.626 12.597-12.626 6.958 0 12.601 5.6512 12.601 12.626zm-50.912-14.343 22.066-47.08h20.708l-34.723 72.356h-16.096l-34.723-72.356h20.706l22.062 47.08zm199.23-47.08-22.065 47.082-22.063-47.082h-20.706l32.964 68.696-10.882 22.674h19.612l43.852-91.37h-20.712z" clip-rule="evenodd" fill="#0089CF" fill-rule="evenodd"/>
</svg>
